# xmcd
#
# Track frame offsets: 
#        150
#        20240
#        34506
#        50169
#        57836
#        72151
#        88847
#        107904
#        124798
#        136214
#        147683
#        165896
#        174111
#        192096
#        210130
#
# Disc length: 2906 seconds
#
# Revision: 5
# Processed by: cddbd v1.5.2PL0 Copyright (c) Steve Scherf et al.
# Submitted via: ExactAudioCopy v0.99pb5
#
DISCID=cf0b580f
DTITLE=Tom Waits - Alice
DYEAR=2002
DGENRE=Blues/Jazz/Rock
TTITLE0=Alice
TTITLE1=Everything you can Think
TTITLE2=Flower's Grave
TTITLE3=No One Knows I'm Gone
TTITLE4=Kommienezuspadt
TTITLE5=Poor Edward
TTITLE6=Table Top Joe
TTITLE7=Lost in the Harbour
TTITLE8=We're All Mad Here
TTITLE9=Watch Her Disappear
TTITLE10=Reeperbahn
TTITLE11=I'm Still Here
TTITLE12=Fish and Bird
TTITLE13=Barcarolle
TTITLE14=Fawn
EXTD=YEAR: 2002 ID3G: 0
EXTT0=
EXTT1=
EXTT2=
EXTT3=
EXTT4=
EXTT5=
EXTT6=
EXTT7=
EXTT8=
EXTT9=
EXTT10=
EXTT11=
EXTT12=
EXTT13=
EXTT14=
PLAYORDER=
